<svg viewBox="0 0 1280 413" fill="#fff" xmlns="http://www.w3.org/2000/svg">
<path d="M130.432 336.662C101.544 336.662 77.473 332.15 58.2189 323.125C38.9649 314.1 24.5278 301.531 14.8938 285.433C5.25988 269.349 0.290679 250.759 0 229.706H50.5367C50.8412 243.548 53.9279 255.66 59.7969 266.041C65.6658 276.422 74.4693 284.312 86.1934 289.738C97.9313 295.15 113.116 297.863 131.775 297.863C147.125 297.863 160.51 295.995 171.944 292.216C183.377 288.451 192.25 282.665 198.576 274.844C204.901 267.024 208.057 256.947 208.057 244.6C208.057 235.284 206.548 227.45 203.545 221.138C200.541 214.826 195.641 209.483 188.872 205.123C182.104 200.763 173.231 197.081 162.241 194.063C151.264 191.059 137.644 188.194 121.407 185.495C102.748 182.187 86.2764 178.2 71.9916 173.536C57.7068 168.871 45.8166 163.002 36.3487 155.929C26.8671 148.869 19.7108 140.218 14.9077 129.975C10.0907 119.746 7.68223 107.717 7.68223 93.8756C7.68223 74.6216 12.4992 57.9283 22.1331 43.7819C31.7533 29.6493 45.5951 18.8111 63.6449 11.2811C81.6947 3.76499 103.357 0 128.633 0C153.908 0 175.404 3.98646 193.177 11.9594C210.923 19.9323 224.612 31.075 234.246 45.346C243.866 59.6447 248.683 76.5733 248.683 96.118H199.046C198.437 82.8852 195.06 71.9778 188.886 63.3958C182.713 54.8277 174.366 48.4327 163.846 44.211C153.299 40.003 140.98 37.8991 126.833 37.8991C112.687 37.8991 100.049 39.8646 89.8338 43.768C79.6046 47.6853 71.784 53.2497 66.358 60.4613C60.9458 67.6868 58.2466 76.7117 58.2466 87.536C58.2466 98.3604 60.9458 107.551 66.358 114.154C71.784 120.784 80.9611 126.113 93.8894 130.183C106.818 134.239 124.425 138.239 146.682 142.142C161.119 144.26 175.114 147.264 188.651 151.167C202.188 155.084 214.217 160.497 224.751 167.418C235.27 174.338 243.7 183.737 250.026 195.627C256.352 207.517 259.508 222.923 259.508 241.887C259.508 260.85 254.621 277.018 244.835 291.302C235.049 305.601 220.612 316.73 201.51 324.703C182.394 332.676 158.711 336.662 130.432 336.662Z"/>
<path d="M318.543 57.3053C310.723 57.3053 304.245 55.2013 299.137 50.9796C294.029 46.7716 291.469 40.9027 291.469 33.3865C291.469 25.8704 294.029 20.0014 299.137 15.7797C304.245 11.5717 310.723 9.46777 318.543 9.46777C326.364 9.46777 332.828 11.5717 337.949 15.7797C343.057 20.0014 345.618 25.8566 345.618 33.3865C345.618 40.9165 343.057 46.7716 337.949 50.9796C332.828 55.2013 326.364 57.3053 318.543 57.3053ZM295.067 332.593V93.8617H341.548V332.606H295.067V332.593Z"/>
<path d="M483.4 412.474C464.437 412.474 447.895 409.692 433.763 404.127C419.617 398.563 408.335 390.659 399.92 380.43C391.49 370.201 386.382 358.02 384.569 343.874H429.693C430.898 350.795 433.901 356.885 438.718 362.145C443.521 367.405 449.778 371.391 457.446 374.104C465.115 376.804 474.057 378.16 484.3 378.16C499.332 378.16 511.748 375.973 521.534 371.613C531.307 367.239 538.463 360.705 542.975 351.985C547.488 343.251 549.744 332.136 549.744 318.598V276.173H547.488C542.366 290.32 533.051 301.753 519.513 310.473C505.976 319.208 489.726 323.568 470.776 323.568C456.934 323.568 444.214 320.938 432.642 315.664C421.056 310.404 411.048 302.736 402.633 292.645C394.203 282.568 387.739 270.304 383.226 255.867C378.714 241.43 376.458 225.027 376.458 206.673C376.458 182.311 380.444 161.313 388.417 143.72C396.39 126.113 407.436 112.659 421.582 103.33C435.715 94.014 452.117 89.3354 470.776 89.3354C489.435 89.3354 505.146 93.5572 518.835 101.973C532.525 110.403 542.076 121.988 547.488 136.716H550.187L551.543 93.8479H596.225V310.473C596.225 334.544 591.63 354.089 582.452 369.135C573.261 384.181 560.264 395.158 543.418 402.079C526.559 409 506.571 412.46 483.4 412.46V412.474ZM486.999 285.212C500.536 285.212 511.97 282.208 521.299 276.187C530.628 270.166 537.688 262.124 542.519 252.047C547.322 241.97 549.744 230.91 549.744 218.868V193.592C549.744 181.564 547.252 170.504 542.297 160.413C537.328 150.337 530.268 142.364 521.091 136.495C511.9 130.626 501.007 127.691 488.369 127.691C474.832 127.691 463.246 130.847 453.612 137.173C443.992 143.485 436.684 152.593 431.728 164.469C426.759 176.359 424.281 190.423 424.281 206.659C424.281 222.896 426.69 236.904 431.507 248.628C436.31 260.366 443.452 269.391 452.948 275.702C462.429 282.014 473.78 285.184 487.013 285.184L486.999 285.212Z"/>
<path d="M643.952 332.593V93.8618H688.177L689.99 141.243H692.689C699.306 124.397 709.756 111.69 724.055 103.108C738.34 94.5262 754.216 90.2491 771.671 90.2491C789.126 90.2491 804.836 94.4708 818.83 102.887C832.824 111.316 842.818 125.753 848.839 146.212H852.452C859.068 127.567 869.976 113.573 885.174 104.243C900.359 94.9138 917.44 90.2491 936.389 90.2491C952.031 90.2491 966.094 93.5573 978.579 100.174C991.065 106.79 1000.92 117.476 1008.15 132.218C1015.37 146.959 1018.97 166.518 1018.97 190.88V332.593H972.946V200.361C972.946 184.111 970.994 170.657 967.077 159.971C963.16 149.299 957.304 141.395 949.484 136.273C941.663 131.166 931.434 128.605 918.796 128.605C906.159 128.605 894.573 131.913 884.953 138.53C875.319 145.146 867.872 153.949 862.612 164.926C857.338 175.916 854.708 188.319 854.708 202.161V332.593H808.227V200.361C808.227 184.111 806.276 170.657 802.358 159.971C798.441 149.299 792.586 141.395 784.765 136.273C776.945 131.166 766.854 128.605 754.521 128.605C741.288 128.605 729.855 131.913 720.221 138.53C710.587 145.146 703.14 153.949 697.88 164.926C692.606 175.916 689.976 188.319 689.976 202.161V332.593H643.938H643.952Z"/>
<path d="M1150.94 336.662C1136.5 336.662 1123.19 333.797 1111 328.08C1098.81 322.363 1088.36 314.252 1079.64 303.705C1070.92 293.185 1064.22 280.312 1059.55 265.113C1054.88 249.929 1052.55 232.544 1052.55 212.985C1052.55 187.115 1056.69 164.995 1064.97 146.641C1073.24 128.3 1084.75 114.223 1099.49 104.451C1114.23 94.6784 1131.38 89.7784 1150.94 89.7784C1164.17 89.7784 1176.21 91.8824 1187.04 96.0903C1197.88 100.312 1207.12 106.098 1214.79 113.462C1222.46 120.84 1227.95 129.643 1231.26 139.858H1233.96L1235.78 93.8202H1280V332.565H1235.78L1233.96 286.084H1231.26C1225.84 301.13 1216.06 313.311 1201.93 322.64C1187.79 331.97 1170.79 336.634 1150.94 336.634V336.662ZM1166.75 298.292C1181.18 298.292 1193.38 294.984 1203.3 288.368C1213.24 281.751 1220.74 273.017 1225.86 262.193C1230.97 251.355 1233.55 239.478 1233.55 226.536V199.461C1233.55 186.229 1230.9 174.186 1225.64 163.362C1220.37 152.524 1212.84 143.886 1203.08 137.408C1193.29 130.944 1181.49 127.705 1167.65 127.705C1153.8 127.705 1141.4 131.166 1131.32 138.087C1121.25 145.007 1113.57 154.78 1108.31 167.418C1103.03 180.055 1100.4 195.254 1100.4 212.999C1100.4 230.744 1102.95 245.652 1108.07 258.58C1113.18 271.522 1120.71 281.378 1130.63 288.146C1140.56 294.915 1152.59 298.306 1166.73 298.306L1166.75 298.292Z"/>
</svg>
