<svg viewBox="0 0 1281 298" fill="#fff" xmlns="http://www.w3.org/2000/svg">
<path d="M0 67.81C0 30.36 30.36 0 67.82 0V54.97C67.82 62.06 62.07 67.81 54.98 67.81H0Z"/>
<path d="M52.18 150.77C22.27 143.71 0 116.84 0 84.77H54.97C62.06 84.77 67.81 90.52 67.81 97.61V138.23C67.81 146.45 60.18 152.66 52.18 150.77Z"/>
<path d="M169.54 0C206.99 0 237.36 30.36 237.36 67.82H182.39C175.3 67.82 169.55 62.07 169.55 54.98V0H169.54Z"/>
<path d="M237.35 169.54C237.35 206.99 206.99 237.36 169.53 237.36V182.39C169.53 175.3 175.28 169.55 182.37 169.55H237.34L237.35 169.54Z"/>
<path d="M185.17 86.5801C215.09 93.6401 237.35 120.51 237.35 152.59H182.38C175.29 152.59 169.54 146.84 169.54 139.75V99.1301C169.54 90.9101 177.17 84.7001 185.17 86.5901V86.5801Z"/>
<path d="M67.82 237.35C30.36 237.35 0 206.99 0 169.54H54.97C62.06 169.54 67.81 175.29 67.81 182.38V237.35H67.82Z"/>
<path d="M84.77 0H152.59V54.97C152.59 62.06 146.83 67.81 139.75 67.81H97.62C90.53 67.81 84.78 62.05 84.78 54.97V0H84.77Z"/>
<path d="M139.75 84.77H97.61C90.5187 84.77 84.77 90.5187 84.77 97.61V139.75C84.77 146.841 90.5187 152.59 97.61 152.59H139.75C146.841 152.59 152.59 146.841 152.59 139.75V97.61C152.59 90.5187 146.841 84.77 139.75 84.77Z"/>
<path d="M97.61 169.54H139.74C146.83 169.54 152.58 175.3 152.58 182.38V237.35H84.76V182.38C84.76 175.29 90.52 169.54 97.6 169.54H97.61Z"/>
<path d="M449.59 243.22C428.72 243.22 411.33 239.96 397.42 233.44C383.51 226.92 373.08 217.84 366.12 206.21C359.16 194.59 355.57 181.16 355.36 165.95H391.87C392.09 175.95 394.32 184.7 398.56 192.2C402.8 199.7 409.16 205.4 417.63 209.32C426.11 213.23 437.08 215.19 450.56 215.19C461.65 215.19 471.32 213.84 479.58 211.11C487.84 208.39 494.25 204.21 498.82 198.56C503.39 192.91 505.67 185.63 505.67 176.71C505.67 169.98 504.58 164.32 502.41 159.76C500.24 155.2 496.7 151.34 491.81 148.19C486.92 145.04 480.51 142.38 472.57 140.2C464.64 138.03 454.8 135.96 443.07 134.01C429.59 131.62 417.69 128.74 407.37 125.37C397.05 122 388.46 117.76 381.62 112.65C374.77 107.55 369.6 101.3 366.13 93.9C362.65 86.51 360.91 77.82 360.91 67.82C360.91 53.91 364.39 41.85 371.35 31.63C378.3 21.42 388.3 13.59 401.34 8.15C414.38 2.72 430.03 0 448.29 0C466.55 0 482.08 2.88 494.92 8.64C507.74 14.4 517.63 22.45 524.59 32.76C531.54 43.09 535.02 55.32 535.02 69.44H499.16C498.72 59.88 496.28 52 491.82 45.8C487.36 39.61 481.33 34.99 473.73 31.94C466.11 28.9 457.21 27.38 446.99 27.38C436.77 27.38 427.64 28.8 420.26 31.62C412.87 34.45 407.22 38.47 403.3 43.68C399.39 48.9 397.44 55.42 397.44 63.24C397.44 71.06 399.39 77.7 403.3 82.47C407.22 87.26 413.85 91.11 423.19 94.05C432.53 96.98 445.25 99.87 461.33 102.69C471.76 104.22 481.87 106.39 491.65 109.21C501.43 112.04 510.12 115.95 517.73 120.95C525.33 125.95 531.42 132.74 535.99 141.33C540.56 149.92 542.84 161.05 542.84 174.75C542.84 188.45 539.31 200.13 532.24 210.45C525.17 220.78 514.74 228.82 500.94 234.58C487.13 240.34 470.02 243.22 449.59 243.22Z"/>
<path d="M585.49 41.3998C579.84 41.3998 575.16 39.8798 571.47 36.8298C567.78 33.7898 565.93 29.5498 565.93 24.1198C565.93 18.6898 567.78 14.4498 571.47 11.3998C575.16 8.35984 579.84 6.83984 585.49 6.83984C591.14 6.83984 595.81 8.35984 599.51 11.3998C603.2 14.4498 605.05 18.6798 605.05 24.1198C605.05 29.5598 603.2 33.7898 599.51 36.8298C595.81 39.8798 591.14 41.3998 585.49 41.3998ZM568.53 240.28V67.8098H602.11V240.29H568.53V240.28Z"/>
<path d="M704.59 297.99C690.89 297.99 678.94 295.98 668.73 291.96C658.51 287.94 650.36 282.23 644.28 274.84C638.19 267.45 634.5 258.65 633.19 248.43H665.79C666.66 253.43 668.83 257.83 672.31 261.63C675.78 265.43 680.3 268.31 685.84 270.27C691.38 272.22 697.84 273.2 705.24 273.2C716.1 273.2 725.07 271.62 732.14 268.47C739.2 265.31 744.37 260.59 747.63 254.29C750.89 247.98 752.52 239.95 752.52 230.17V199.52H750.89C747.19 209.74 740.46 218 730.68 224.3C720.9 230.61 709.16 233.76 695.47 233.76C685.47 233.76 676.28 231.86 667.92 228.05C659.55 224.25 652.32 218.71 646.24 211.42C640.15 204.14 635.48 195.28 632.22 184.85C628.96 174.42 627.33 162.57 627.33 149.31C627.33 131.71 630.21 116.54 635.97 103.83C641.73 91.11 649.71 81.39 659.93 74.65C670.14 67.92 681.99 64.54 695.47 64.54C708.95 64.54 720.3 67.59 730.19 73.67C740.08 79.76 746.98 88.13 750.89 98.77H752.84L753.82 67.8H786.1V224.3C786.1 241.69 782.78 255.81 776.15 266.68C769.51 277.55 760.12 285.48 747.95 290.48C735.77 295.48 721.33 297.98 704.59 297.98V297.99ZM707.19 206.05C716.97 206.05 725.23 203.88 731.97 199.53C738.71 195.18 743.81 189.37 747.3 182.09C750.77 174.81 752.52 166.82 752.52 158.12V139.86C752.52 131.17 750.72 123.18 747.14 115.89C743.55 108.61 738.45 102.85 731.82 98.61C725.18 94.37 717.31 92.25 708.18 92.25C698.4 92.25 690.03 94.53 683.07 99.1C676.12 103.66 670.84 110.24 667.26 118.82C663.67 127.41 661.88 137.57 661.88 149.3C661.88 161.03 663.62 171.15 667.1 179.62C670.57 188.1 675.73 194.62 682.59 199.18C689.44 203.74 697.64 206.03 707.2 206.03L707.19 206.05Z"/>
<path d="M820.58 240.28V67.81H852.53L853.84 102.04H855.79C860.57 89.87 868.12 80.69 878.45 74.49C888.77 68.29 900.24 65.2 912.85 65.2C925.46 65.2 936.81 68.2499 946.92 74.3299C957.03 80.4199 964.25 90.85 968.6 105.63H971.21C975.99 92.16 983.87 82.05 994.85 75.31C1005.82 68.57 1018.16 65.2 1031.85 65.2C1043.15 65.2 1053.31 67.5899 1062.33 72.3699C1071.35 77.1499 1078.47 84.87 1083.69 95.52C1088.91 106.17 1091.51 120.3 1091.51 137.9V240.28H1058.26V144.75C1058.26 133.01 1056.85 123.29 1054.02 115.57C1051.19 107.86 1046.96 102.15 1041.31 98.45C1035.66 94.76 1028.27 92.91 1019.14 92.91C1010.01 92.91 1001.64 95.2999 994.69 100.08C987.73 104.86 982.35 111.22 978.55 119.15C974.74 127.09 972.84 136.05 972.84 146.05V240.28H939.26V144.75C939.26 133.01 937.85 123.29 935.02 115.57C932.19 107.86 927.96 102.15 922.31 98.45C916.66 94.76 909.37 92.91 900.46 92.91C890.9 92.91 882.64 95.2999 875.68 100.08C868.72 104.86 863.34 111.22 859.54 119.15C855.73 127.09 853.83 136.05 853.83 146.05V240.28H820.57H820.58Z"/>
<path d="M1186.85 243.22C1176.42 243.22 1166.8 241.15 1158 237.02C1149.19 232.89 1141.64 227.03 1135.34 219.41C1129.04 211.81 1124.2 202.51 1120.83 191.53C1117.45 180.56 1115.77 168 1115.77 153.87C1115.77 135.18 1118.76 119.2 1124.74 105.94C1130.72 92.6899 1139.03 82.5199 1149.68 75.4599C1160.33 68.3999 1172.72 64.8599 1186.85 64.8599C1196.41 64.8599 1205.11 66.3799 1212.93 69.4199C1220.76 72.4699 1227.44 76.6499 1232.98 81.9699C1238.52 87.2999 1242.49 93.6599 1244.88 101.04H1246.83L1248.14 67.7799H1280.09V240.26H1248.14L1246.83 206.68H1244.88C1240.96 217.55 1233.9 226.35 1223.69 233.09C1213.47 239.83 1201.19 243.2 1186.85 243.2V243.22ZM1198.27 215.5C1208.7 215.5 1217.51 213.11 1224.68 208.33C1231.86 203.55 1237.28 197.24 1240.98 189.42C1244.67 181.59 1246.53 173.01 1246.53 163.66V144.1C1246.53 134.54 1244.62 125.84 1240.82 118.02C1237.01 110.19 1231.57 103.95 1224.52 99.2699C1217.45 94.5999 1208.92 92.2599 1198.92 92.2599C1188.92 92.2599 1179.96 94.7599 1172.68 99.7599C1165.4 104.76 1159.85 111.82 1156.05 120.95C1152.24 130.08 1150.34 141.06 1150.34 153.88C1150.34 166.7 1152.18 177.47 1155.88 186.81C1159.57 196.16 1165.01 203.28 1172.18 208.17C1179.35 213.06 1188.04 215.51 1198.26 215.51L1198.27 215.5Z"/>
</svg>
