<svg viewBox="0 0 1280 1280" fill="#fff" xmlns="http://www.w3.org/2000/svg">
<path d="M0 365.71C0 163.74 163.74 0 365.71 0V296.44C365.71 334.7 334.7 365.71 296.44 365.71H0Z"/>
<path d="M281.42 813.1C120.08 775.03 0 630.11 0 457.14H296.44C334.7 457.14 365.71 488.15 365.71 526.41V745.45C365.71 789.76 324.54 823.26 281.42 813.09V813.1Z"/>
<path d="M914.29 0C1116.26 0 1280 163.74 1280 365.71H983.56C945.3 365.71 914.29 334.7 914.29 296.44V0Z"/>
<path d="M1280 914.29C1280 1116.27 1116.26 1280 914.29 1280V983.56C914.29 945.3 945.3 914.29 983.56 914.29H1280Z"/>
<path d="M998.58 466.9C1159.92 504.96 1280 649.88 1280 822.85H983.56C945.3 822.85 914.29 791.84 914.29 753.58V534.54C914.29 490.23 955.46 456.73 998.58 466.9Z"/>
<path d="M365.71 1280C163.74 1280 0 1116.26 0 914.29H296.44C334.7 914.29 365.71 945.3 365.71 983.56V1280Z"/>
<path d="M457.14 0H822.85V296.44C822.85 334.67 791.81 365.71 753.58 365.71H526.4C488.17 365.71 457.13 334.67 457.13 296.44V0H457.14Z"/>
<path d="M753.58 457.14H526.41C488.153 457.14 457.14 488.153 457.14 526.41V753.58C457.14 791.837 488.153 822.85 526.41 822.85H753.58C791.837 822.85 822.85 791.837 822.85 753.58V526.41C822.85 488.153 791.837 457.14 753.58 457.14Z"/>
<path d="M526.41 914.29H753.59C791.82 914.29 822.86 945.33 822.86 983.56V1280H457.15V983.56C457.15 945.33 488.19 914.29 526.42 914.29H526.41Z"/>
</svg>
