<svg viewBox="0 0 1280 298" fill="#fff" xmlns="http://www.w3.org/2000/svg">
<path d="M449.49 243.23C428.62 243.23 411.23 239.97 397.32 233.45C383.41 226.93 372.98 217.85 366.02 206.22C359.06 194.6 355.47 181.17 355.26 165.96H391.77C391.99 175.96 394.22 184.71 398.46 192.21C402.7 199.71 409.06 205.41 417.53 209.33C426.01 213.24 436.98 215.2 450.46 215.2C461.55 215.2 471.22 213.85 479.48 211.12C487.74 208.4 494.15 204.22 498.72 198.57C503.29 192.92 505.57 185.64 505.57 176.72C505.57 169.99 504.48 164.33 502.31 159.77C500.14 155.21 496.6 151.35 491.71 148.2C486.82 145.05 480.41 142.39 472.47 140.21C464.54 138.04 454.7 135.97 442.97 134.02C429.49 131.63 417.59 128.75 407.27 125.38C396.95 122.01 388.36 117.77 381.52 112.66C374.67 107.56 369.5 101.31 366.03 93.91C362.55 86.52 360.81 77.83 360.81 67.83C360.81 53.92 364.29 41.86 371.25 31.64C378.2 21.43 388.2 13.6 401.24 8.16001C414.28 2.73001 429.93 0.0100098 448.19 0.0100098C466.45 0.0100098 481.98 2.89001 494.82 8.65001C507.64 14.41 517.53 22.46 524.49 32.77C531.44 43.1 534.92 55.33 534.92 69.45H499.06C498.62 59.89 496.18 52.01 491.72 45.81C487.26 39.62 481.23 35 473.63 31.95C466.01 28.91 457.11 27.39 446.89 27.39C436.67 27.39 427.54 28.81 420.16 31.63C412.77 34.46 407.12 38.48 403.2 43.69C399.29 48.91 397.34 55.43 397.34 63.25C397.34 71.07 399.29 77.71 403.2 82.48C407.12 87.27 413.75 91.12 423.09 94.06C432.43 96.99 445.15 99.88 461.23 102.7C471.66 104.23 481.77 106.4 491.55 109.22C501.33 112.05 510.02 115.96 517.63 120.96C525.23 125.96 531.32 132.75 535.89 141.34C540.46 149.93 542.74 161.06 542.74 174.76C542.74 188.46 539.21 200.14 532.14 210.46C525.07 220.79 514.64 228.83 500.84 234.59C487.03 240.35 469.92 243.23 449.49 243.23Z"/>
<path d="M585.39 41.4101C579.74 41.4101 575.06 39.8901 571.37 36.8401C567.68 33.8001 565.83 29.5601 565.83 24.1301C565.83 18.7001 567.68 14.4601 571.37 11.4101C575.06 8.3701 579.74 6.8501 585.39 6.8501C591.04 6.8501 595.71 8.3701 599.41 11.4101C603.1 14.4601 604.95 18.6901 604.95 24.1301C604.95 29.5701 603.1 33.8001 599.41 36.8401C595.71 39.8901 591.04 41.4101 585.39 41.4101ZM568.43 240.29V67.8201H602.01V240.3H568.43V240.29Z"/>
<path d="M704.49 298C690.79 298 678.84 295.99 668.63 291.97C658.41 287.95 650.26 282.24 644.18 274.85C638.09 267.46 634.4 258.66 633.09 248.44H665.69C666.56 253.44 668.73 257.84 672.21 261.64C675.68 265.44 680.2 268.32 685.74 270.28C691.28 272.23 697.74 273.21 705.14 273.21C716 273.21 724.97 271.63 732.04 268.48C739.1 265.32 744.27 260.6 747.53 254.3C750.79 247.99 752.42 239.96 752.42 230.18V199.53H750.79C747.09 209.75 740.36 218.01 730.58 224.31C720.8 230.62 709.06 233.77 695.37 233.77C685.37 233.77 676.18 231.87 667.82 228.06C659.45 224.26 652.22 218.72 646.14 211.43C640.05 204.15 635.38 195.29 632.12 184.86C628.86 174.43 627.23 162.58 627.23 149.32C627.23 131.72 630.11 116.55 635.87 103.84C641.63 91.12 649.61 81.4 659.83 74.66C670.04 67.93 681.89 64.55 695.37 64.55C708.85 64.55 720.2 67.6 730.09 73.68C739.98 79.77 746.88 88.14 750.79 98.78H752.74L753.72 67.81H786V224.31C786 241.7 782.68 255.82 776.05 266.69C769.41 277.56 760.02 285.49 747.85 290.49C735.67 295.49 721.23 297.99 704.49 297.99V298ZM707.09 206.06C716.87 206.06 725.13 203.89 731.87 199.54C738.61 195.19 743.71 189.38 747.2 182.1C750.67 174.82 752.42 166.83 752.42 158.13V139.87C752.42 131.18 750.62 123.19 747.04 115.9C743.45 108.62 738.35 102.86 731.72 98.62C725.08 94.38 717.21 92.26 708.08 92.26C698.3 92.26 689.93 94.54 682.97 99.11C676.02 103.67 670.74 110.25 667.16 118.83C663.57 127.42 661.78 137.58 661.78 149.31C661.78 161.04 663.52 171.16 667 179.63C670.47 188.11 675.63 194.63 682.49 199.19C689.34 203.75 697.54 206.04 707.1 206.04L707.09 206.06Z"/>
<path d="M820.48 240.29V67.82H852.43L853.74 102.05H855.69C860.47 89.88 868.02 80.7 878.35 74.5C888.67 68.3 900.14 65.21 912.75 65.21C925.36 65.21 936.71 68.26 946.82 74.34C956.93 80.43 964.15 90.86 968.5 105.64H971.11C975.89 92.17 983.77 82.06 994.75 75.32C1005.72 68.58 1018.06 65.21 1031.75 65.21C1043.05 65.21 1053.21 67.6 1062.23 72.38C1071.25 77.16 1078.37 84.88 1083.59 95.53C1088.81 106.18 1091.41 120.31 1091.41 137.91V240.29H1058.16V144.76C1058.16 133.02 1056.75 123.3 1053.92 115.58C1051.09 107.87 1046.86 102.16 1041.21 98.46C1035.56 94.77 1028.17 92.92 1019.04 92.92C1009.91 92.92 1001.54 95.31 994.59 100.09C987.63 104.87 982.25 111.23 978.45 119.16C974.64 127.1 972.74 136.06 972.74 146.06V240.29H939.16V144.76C939.16 133.02 937.75 123.3 934.92 115.58C932.09 107.87 927.86 102.16 922.21 98.46C916.56 94.77 909.27 92.92 900.36 92.92C890.8 92.92 882.54 95.31 875.58 100.09C868.62 104.87 863.24 111.23 859.44 119.16C855.63 127.1 853.73 136.06 853.73 146.06V240.29H820.47H820.48Z"/>
<path d="M1186.75 243.23C1176.32 243.23 1166.7 241.16 1157.9 237.03C1149.09 232.9 1141.54 227.04 1135.24 219.42C1128.94 211.82 1124.1 202.52 1120.73 191.54C1117.35 180.57 1115.67 168.01 1115.67 153.88C1115.67 135.19 1118.66 119.21 1124.64 105.95C1130.62 92.7001 1138.93 82.5301 1149.58 75.4701C1160.23 68.4101 1172.62 64.8701 1186.75 64.8701C1196.31 64.8701 1205.01 66.3901 1212.83 69.4301C1220.66 72.4801 1227.34 76.6601 1232.88 81.9801C1238.42 87.3101 1242.39 93.6701 1244.78 101.05H1246.73L1248.04 67.7901H1279.99V240.27H1248.04L1246.73 206.69H1244.78C1240.86 217.56 1233.8 226.36 1223.59 233.1C1213.37 239.84 1201.09 243.21 1186.75 243.21V243.23ZM1198.17 215.51C1208.6 215.51 1217.41 213.12 1224.58 208.34C1231.76 203.56 1237.18 197.25 1240.88 189.43C1244.57 181.6 1246.43 173.02 1246.43 163.67V144.11C1246.43 134.55 1244.52 125.85 1240.72 118.03C1236.91 110.2 1231.47 103.96 1224.42 99.2801C1217.35 94.6101 1208.82 92.2701 1198.82 92.2701C1188.82 92.2701 1179.86 94.7701 1172.58 99.7701C1165.3 104.77 1159.75 111.83 1155.95 120.96C1152.14 130.09 1150.24 141.07 1150.24 153.89C1150.24 166.71 1152.08 177.48 1155.78 186.82C1159.47 196.17 1164.91 203.29 1172.08 208.18C1179.25 213.07 1187.94 215.52 1198.16 215.52L1198.17 215.51Z"/>
<path d="M0 70.7499C0 33.2999 30.36 2.93994 67.82 2.93994V57.9099C67.82 64.9999 62.07 70.7499 54.98 70.7499H0Z"/>
<path d="M52.18 153.71C22.27 146.65 0 119.78 0 87.71H54.97C62.06 87.71 67.81 93.46 67.81 100.55V141.17C67.81 149.39 60.18 155.6 52.18 153.71Z"/>
<path d="M169.54 2.93994C206.99 2.93994 237.36 33.2999 237.36 70.7599H182.39C175.3 70.7599 169.55 65.0099 169.55 57.9199V2.93994H169.54Z"/>
<path d="M237.35 172.48C237.35 209.93 206.99 240.3 169.53 240.3V185.33C169.53 178.24 175.28 172.49 182.37 172.49H237.34L237.35 172.48Z"/>
<path d="M185.17 89.52C215.09 96.58 237.35 123.45 237.35 155.53H182.38C175.29 155.53 169.54 149.78 169.54 142.69V102.07C169.54 93.85 177.17 87.64 185.17 89.53V89.52Z"/>
<path d="M67.82 240.29C30.36 240.29 0 209.93 0 172.48H54.97C62.06 172.48 67.81 178.23 67.81 185.32V240.29H67.82Z"/>
<path d="M84.77 2.93994H152.59V57.9099C152.59 64.9999 146.83 70.7499 139.75 70.7499H97.62C90.53 70.7499 84.78 64.9899 84.78 57.9099V2.93994H84.77Z"/>
<path d="M139.75 87.71H97.61C90.5187 87.71 84.77 93.4586 84.77 100.55V142.69C84.77 149.781 90.5187 155.53 97.61 155.53H139.75C146.841 155.53 152.59 149.781 152.59 142.69V100.55C152.59 93.4586 146.841 87.71 139.75 87.71Z"/>
<path d="M97.61 172.48H139.74C146.83 172.48 152.58 178.24 152.58 185.32V240.29H84.76V185.32C84.76 178.23 90.52 172.48 97.6 172.48H97.61Z"/>
</svg>
