<svg width="512" height="512" viewBox="0 0 512 512" fill="none" xmlns="http://www.w3.org/2000/svg">
<g clip-path="url(#clip0_596_12069)">
<path d="M64 173.713C64 113.122 113.122 64 173.713 64V152.932C173.713 164.41 164.41 173.713 152.932 173.713H64Z" fill="white"/>
<path d="M148.426 307.93C100.024 296.509 64 253.033 64 201.142H152.932C164.41 201.142 173.713 210.445 173.713 221.923V287.635C173.713 300.928 161.362 310.978 148.426 307.927V307.93Z" fill="white"/>
<path d="M338.287 64C398.878 64 448 113.122 448 173.713H359.068C347.59 173.713 338.287 164.41 338.287 152.932V64Z" fill="white"/>
<path d="M448 338.287C448 398.881 398.878 448 338.287 448V359.068C338.287 347.59 347.59 338.287 359.068 338.287H448Z" fill="white"/>
<path d="M363.574 204.07C411.976 215.488 448 258.964 448 310.855H359.068C347.59 310.855 338.287 301.552 338.287 290.074V224.362C338.287 211.069 350.638 201.019 363.574 204.07Z" fill="white"/>
<path d="M173.713 448C113.122 448 64 398.878 64 338.287H152.932C164.41 338.287 173.713 347.59 173.713 359.068V448Z" fill="white"/>
<path d="M201.142 64H310.855V152.932C310.855 164.401 301.543 173.713 290.074 173.713H221.92C210.451 173.713 201.139 164.401 201.139 152.932V64H201.142Z" fill="white"/>
<path d="M290.074 201.142H221.923C210.446 201.142 201.142 210.446 201.142 221.923V290.074C201.142 301.551 210.446 310.855 221.923 310.855H290.074C301.551 310.855 310.855 301.551 310.855 290.074V221.923C310.855 210.446 301.551 201.142 290.074 201.142Z" fill="white"/>
<path d="M221.923 338.287H290.077C301.546 338.287 310.858 347.599 310.858 359.068V448H201.145V359.068C201.145 347.599 210.457 338.287 221.926 338.287H221.923Z" fill="white"/>
</g>
<defs>
<clipPath id="clip0_596_12069">
<rect width="384" height="384" fill="white" transform="translate(64 64)"/>
</clipPath>
</defs>
</svg>
